<svg width="195" height="41" viewBox="0 0 195 41" fill="none" xmlns="http://www.w3.org/2000/svg">
<path d="M21.6035 8.5C21.7559 8.85156 22.0664 9.85352 22.5352 11.5059C22.7461 12.2559 22.8574 13.0527 22.8691 13.8965H21.2695C20.1445 12.3027 18.9844 11.1602 17.7891 10.4688C16.5938 9.76562 15.2578 9.41406 13.7812 9.41406C11.9648 9.41406 10.5 10.123 9.38672 11.541C7.875 13.4629 7.11914 16.1406 7.11914 19.5742C7.11914 21.5664 7.24805 22.9844 7.50586 23.8281C7.92773 25.1992 8.46094 26.3184 9.10547 27.1855C9.59766 27.8418 10.2422 28.3633 11.0391 28.75C12.0703 29.2773 13.1719 29.541 14.3438 29.541C15.6328 29.541 16.875 29.1426 18.0703 28.3457C19.2773 27.5371 20.4316 26.3359 21.5332 24.7422C21.9668 24.6602 22.5352 24.6133 23.2383 24.6016C23.1914 25.0469 23.1152 25.5098 23.0098 25.9902C22.9746 26.1777 22.8398 26.9219 22.6055 28.2227L22.4473 28.75L22.2012 29.5762C21.4863 30.127 20.4785 30.543 19.1777 30.8242C17.8887 31.0938 16.3008 31.2285 14.4141 31.2285C12.9727 31.2285 11.6074 31.0938 10.3184 30.8242C9.04102 30.5547 7.94531 30.127 7.03125 29.541C5.69531 28.6973 4.64648 27.7832 3.88477 26.7988C3.12305 25.8145 2.55469 24.7422 2.17969 23.582C1.81641 22.4219 1.63477 21.1211 1.63477 19.6797C1.63477 16.1875 2.7832 13.3047 5.08008 11.0312C7.38867 8.75781 10.3301 7.62109 13.9043 7.62109C15.3574 7.62109 16.7227 7.69727 18 7.84961C19.2891 7.99023 20.4902 8.20703 21.6035 8.5ZM23.9414 30.877L23.9766 29.6816C24.1992 29.6113 24.5918 29.5234 25.1543 29.418C26.0566 29.2422 26.6016 29.084 26.7891 28.9434C26.9883 28.8027 27.2285 28.4629 27.5098 27.9238L31.0605 18.625L35.2266 7.69141C35.6133 7.70313 35.9824 7.70898 36.334 7.70898H37.125L37.2832 8.02539L40.3418 15.2676C41.0332 16.8027 41.6543 18.2969 42.2051 19.75C42.7559 21.1914 43.2305 22.3691 43.6289 23.2832C43.8633 23.834 44.1855 24.6602 44.5957 25.7617C44.8066 26.3594 45.1289 27.1094 45.5625 28.0117C45.7969 28.5039 45.9727 28.791 46.0898 28.873C46.3008 29.0488 46.6406 29.166 47.1094 29.2246C47.5898 29.2832 48.1055 29.418 48.6562 29.6289C48.7148 30.0156 48.7441 30.3027 48.7441 30.4902C48.7441 30.5723 48.7383 30.7012 48.7266 30.877C47.8594 30.877 46.9043 30.8359 45.8613 30.7539C44.8184 30.6719 43.8809 30.6309 43.0488 30.6309C42.123 30.6309 41.4551 30.6426 41.0449 30.666L38.0566 30.8242L37.1953 30.8594C37.1953 30.4492 37.2129 30.0566 37.248 29.6816L39.1992 29.2598C39.7852 29.1074 40.125 28.9902 40.2188 28.9082C40.3359 28.791 40.3945 28.6562 40.3945 28.5039C40.3945 28.3516 40.3652 28.1934 40.3066 28.0293L39.6035 26.3066L38.2148 22.8613L31.5 22.8438C31.2539 23.4062 30.7441 24.7832 29.9707 26.9746C29.748 27.5957 29.6367 28.0176 29.6367 28.2402C29.6367 28.5449 29.7188 28.7617 29.8828 28.8906C30.1523 29.1133 30.668 29.2715 31.4297 29.3652C31.5352 29.3887 31.9512 29.4531 32.6777 29.5586C32.6895 29.9805 32.6953 30.2734 32.6953 30.4375C32.6953 30.5664 32.6836 30.7012 32.6602 30.8418C31.9336 30.8418 30.1992 30.7422 27.457 30.543L26.7363 30.666C25.8691 30.8066 25.043 30.877 24.2578 30.877H23.9414ZM32.2031 20.998C34.9453 21.0332 36.5625 21.0508 37.0547 21.0508L37.4941 21.0332C37.1426 19.9902 36.6855 18.7773 36.123 17.3945C35.5605 16 35.1035 14.9395 34.752 14.2129L32.2031 20.998ZM48.8848 9.30859L48.8672 7.97266L53.0684 8.23633L54.9492 8.21875H55.6348C56.3496 8.21875 57.4688 8.17773 58.9922 8.0957C59.8594 8.03711 60.4043 8.00781 60.627 8.00781C62.1035 8.00781 63.2168 8.08984 63.9668 8.25391C65.1152 8.48828 66.0234 8.86328 66.6914 9.37891C67.3711 9.89453 67.9512 10.6328 68.4316 11.5938C68.9238 12.543 69.1699 13.4277 69.1699 14.248C69.1699 16.2871 68.5254 17.9453 67.2363 19.2227C65.959 20.4883 64.3418 21.1211 62.3848 21.1211C61.7051 21.1211 61.0547 21.0391 60.4336 20.875C59.8242 20.7109 59.25 20.4648 58.7109 20.1367C58.6523 19.7969 58.623 19.3281 58.623 18.7305C58.9043 18.7539 59.1562 18.7715 59.3789 18.7832C59.6133 18.7949 59.8184 18.8008 59.9941 18.8008C60.9902 18.8008 61.8281 18.5254 62.5078 17.9746C63.4102 17.2598 63.8613 16.0996 63.8613 14.4941C63.8613 13.3457 63.6621 12.4082 63.2637 11.6816C62.877 10.9434 62.4141 10.4453 61.875 10.1875C61.125 9.83594 60.2812 9.66016 59.3438 9.66016C58.4648 9.66016 57.8379 9.78906 57.4629 10.0469C57.3691 10.1992 57.2988 10.3457 57.252 10.4863L57.375 18.7656L57.3398 19.4688L57.3926 20.207C57.4043 20.3711 57.4102 20.6113 57.4102 20.9277V22.3691L57.4277 24.6719L57.3926 27.4141C57.3926 27.8008 57.4277 28.3223 57.498 28.9785L60.9961 29.418C61.043 29.6992 61.0664 29.9219 61.0664 30.0859C61.0664 30.2617 61.0371 30.5078 60.9785 30.8242C60.6855 30.8711 60.4629 30.8945 60.3105 30.8945C59.9473 30.8945 59.2617 30.8535 58.2539 30.7715C57.2461 30.6777 56.0977 30.6309 54.8086 30.6309C53.3555 30.6309 51.9727 30.7246 50.6602 30.9121C50.4375 30.9473 50.0859 30.9766 49.6055 31C49.5586 30.6602 49.5352 30.4082 49.5352 30.2441C49.5352 30.1387 49.5469 29.9746 49.5703 29.752L50.6426 29.4004C51.3809 29.1777 52.0195 28.9082 52.5586 28.5918C52.6641 28.252 52.7168 27.9414 52.7168 27.6602C52.7168 27.543 52.7109 27.4082 52.6992 27.2559C52.6875 26.8926 52.6816 26.3828 52.6816 25.7266L52.6289 20.7871L52.4355 15.2148C52.3535 12.5664 52.2891 11.1367 52.2422 10.9258C52.1602 10.5859 52.0195 10.3223 51.8203 10.1348C51.6211 9.93555 51.2871 9.79492 50.8184 9.71289C49.8457 9.54883 49.2012 9.41406 48.8848 9.30859ZM88.9277 30.6309C89.4785 30.9824 89.8887 31.2695 90.1582 31.4922C91.8457 32.8516 93.3516 33.8652 94.6758 34.5332C95.2266 34.8145 96.0527 35.0547 97.1543 35.2539C97.1777 35.7227 97.1895 36.0918 97.1895 36.3613C97.1895 36.5957 97.1777 36.8359 97.1543 37.082C96.8613 37.1289 96.5449 37.1523 96.2051 37.1523C94.5527 37.1523 93.1465 37.0293 91.9863 36.7832C91.166 36.6074 90.0527 36.209 88.6465 35.5879C87.252 34.9668 85.4004 33.9355 83.0918 32.4941C81.9902 31.8027 81.0176 31.2754 80.1738 30.9121C78.3574 30.1387 76.8516 29.2363 75.6562 28.2051C74.4609 27.1738 73.5117 25.9316 72.8086 24.4785C72.1055 23.0137 71.7539 21.4141 71.7539 19.6797C71.7539 17.5 72.2754 15.4551 73.3184 13.5449C74.3613 11.623 76.043 10.0645 78.3633 8.86914C79.9336 8.06055 81.9258 7.65625 84.3398 7.65625C86.25 7.65625 87.8496 7.89062 89.1387 8.35938C90.4277 8.81641 91.5469 9.43164 92.4961 10.2051C93.4453 10.9785 94.2422 11.8398 94.8867 12.7891C95.5312 13.7266 96.0352 14.7578 96.3984 15.8828C96.7734 17.0078 96.9609 18.1973 96.9609 19.4512C96.9609 20.8926 96.7207 22.252 96.2402 23.5293C95.7598 24.8066 95.1387 25.9141 94.377 26.8516C93.627 27.7773 92.7363 28.5977 91.7051 29.3125C91.084 29.7227 90.1582 30.1621 88.9277 30.6309ZM84.5156 29.7168C85.3711 29.7168 86.3438 29.4473 87.4336 28.9082C88.5352 28.3574 89.4609 27.3379 90.2109 25.8496C90.9727 24.3496 91.3535 22.2812 91.3535 19.6445C91.3535 17.6523 91.1426 16.0234 90.7207 14.7578C90.3105 13.4922 89.8477 12.5195 89.332 11.8398C88.8164 11.1602 88.1602 10.5977 87.3633 10.1523C86.3203 9.57812 85.248 9.29102 84.1465 9.29102C83.1387 9.29102 82.3184 9.44922 81.6855 9.76562C80.666 10.293 79.8809 10.9316 79.3301 11.6816C78.5566 12.748 78.0469 13.9785 77.8008 15.373C77.5664 16.7559 77.4492 18.0684 77.4492 19.3105C77.4492 20.6934 77.584 22.0996 77.8535 23.5293C78.1348 24.959 78.5449 26.1016 79.084 26.957C79.6348 27.8125 80.3672 28.4863 81.2812 28.9785C82.207 29.4707 83.2852 29.7168 84.5156 29.7168ZM99.3691 9.60742L99.3164 8.21875C99.5273 8.20703 99.7441 8.20117 99.9668 8.20117C100.553 8.20117 101.168 8.21875 101.812 8.25391C103.359 8.33594 104.268 8.37695 104.537 8.37695C105.475 8.37695 106.389 8.35938 107.279 8.32422C108.182 8.27734 108.979 8.24805 109.67 8.23633C110.373 8.22461 110.848 8.21289 111.094 8.20117L111.076 8.41211L111.111 9.44922V9.58984C110.455 9.68359 109.775 9.73047 109.072 9.73047C108.416 9.73047 107.982 9.85937 107.771 10.1172C107.631 10.2812 107.561 10.9785 107.561 12.209C107.561 12.584 107.566 12.8887 107.578 13.123L107.596 13.7559L107.561 15.4082L107.666 16.8145L107.596 19.8555L107.824 24.2676C107.883 25.5449 108.164 26.6055 108.668 27.4492C109.043 28.0703 109.57 28.5566 110.25 28.9082C111.234 29.4004 112.201 29.6465 113.15 29.6465C114.275 29.6465 115.324 29.5 116.297 29.207C116.871 29.043 117.41 28.7793 117.914 28.416C118.43 28.041 118.787 27.7012 118.986 27.3965C119.408 26.752 119.701 26.1484 119.865 25.5859C120.088 24.8125 120.199 23.6113 120.199 21.9824C120.199 19.1465 120.047 15.9531 119.742 12.4023L119.672 11.4707C119.637 10.7793 119.508 10.3164 119.285 10.082C118.91 9.71875 118.488 9.53711 118.02 9.53711L116.367 9.57227L116.139 9.51953L116.174 8.18359H117.562L120.92 8.32422C122.045 8.32422 123.117 8.27148 124.137 8.16602L124.436 8.20117C124.506 8.58789 124.541 8.85742 124.541 9.00977C124.541 9.13867 124.518 9.29687 124.471 9.48438C124.037 9.61328 123.58 9.68945 123.1 9.71289C122.314 9.81836 121.881 9.90625 121.799 9.97656C121.635 10.1172 121.553 10.334 121.553 10.627C121.553 10.8379 121.57 11.1426 121.605 11.541C121.641 11.834 121.658 12.3438 121.658 13.0703C121.658 13.4805 121.658 13.8027 121.658 14.0371C121.67 14.2715 121.682 14.5117 121.693 14.7578C121.729 15.6016 121.758 16.457 121.781 17.3242L121.957 20.8926C121.957 23.2832 121.875 24.8828 121.711 25.6914C121.547 26.5 121.324 27.1387 121.043 27.6074C120.609 28.3105 119.994 28.9609 119.197 29.5586C118.4 30.1445 117.404 30.6133 116.209 30.9648C115.014 31.3047 113.619 31.4746 112.025 31.4746C110.209 31.4746 108.65 31.2344 107.35 30.7539C106.049 30.2617 105.064 29.623 104.396 28.8379C103.74 28.041 103.289 27.0098 103.043 25.7441C102.867 24.877 102.779 23.6348 102.779 22.0176L102.797 13.6328C102.797 11.6523 102.703 10.5332 102.516 10.2754C102.258 9.91211 101.455 9.70703 100.107 9.66016C99.8145 9.66016 99.5684 9.64258 99.3691 9.60742ZM126.791 8.13086C127.459 8.16602 128.039 8.21875 128.531 8.28906C129.457 8.41797 130.529 8.48242 131.748 8.48242C132.17 8.48242 133.254 8.44727 135 8.37695C137.613 8.27148 139.975 8.21875 142.084 8.21875L145.266 8.18359C145.98 8.18359 147.035 8.27148 148.43 8.44727C148.641 8.68164 148.746 8.99805 148.746 9.39648V13.0176L148.781 13.7383C148.781 13.8086 148.775 13.9141 148.764 14.0547L148.043 14.0898C147.949 14.0898 147.75 14.0781 147.445 14.0547C147.34 13.8203 147.199 13.4746 147.023 13.0176L146.32 11.7695C146.051 11.2422 145.676 10.7031 145.195 10.1523C144.902 10.0703 144.527 10.0234 144.07 10.0117C143.953 10 143.596 9.9707 142.998 9.92383C141.908 9.83008 140.736 9.7832 139.482 9.7832C138.053 9.7832 136.775 9.80664 135.65 9.85352C135.615 10.1465 135.598 11.3008 135.598 13.3164L135.633 16.2695V18.4844C135.926 18.5195 136.178 18.5371 136.389 18.5371C138.486 18.5371 139.98 18.4961 140.871 18.4141C141.762 18.332 142.312 18.2207 142.523 18.0801C142.734 17.9277 142.922 17.6699 143.086 17.3066C143.191 17.0488 143.396 16.1875 143.701 14.7227L143.93 14.7051L144.949 14.7227C144.996 15.7656 145.02 16.5566 145.02 17.0957C145.02 18.3262 145.008 19.1172 144.984 19.4688C144.973 19.8203 144.967 20.0957 144.967 20.2949C144.967 20.6113 144.984 21.1211 145.02 21.8242C145.055 22.5156 145.072 23.0312 145.072 23.3711V23.7578H143.824C143.777 23.5703 143.689 23.1836 143.561 22.5977C143.326 21.5078 143.115 20.8281 142.928 20.5586C142.787 20.3477 142.553 20.1895 142.225 20.084C141.99 20.002 141.123 19.9609 139.623 19.9609C137.854 19.9609 136.523 20.0078 135.633 20.1016C135.621 20.4062 135.615 20.6055 135.615 20.6992C135.615 22.0938 135.639 23.2539 135.686 24.1797L135.65 27.9766C135.65 28.4219 135.809 28.7266 136.125 28.8906C136.605 29.1367 138.076 29.2598 140.537 29.2598C142.166 29.2598 143.549 29.1367 144.686 28.8906C145.471 28.7148 146.162 28.3223 146.76 27.7129C147.557 26.9277 148.219 25.8262 148.746 24.4082C149.109 24.373 149.408 24.3555 149.643 24.3555C149.771 24.3555 149.965 24.3613 150.223 24.373C150.188 24.666 150.158 24.9121 150.135 25.1113L150.029 25.6387L149.379 28.9609L149.062 30.9648C148.301 31 147.697 31.0176 147.252 31.0176C146.596 31.0176 144.844 30.959 141.996 30.8418C139.992 30.7598 137.578 30.7188 134.754 30.7188C133.348 30.7188 131.619 30.7773 129.568 30.8945H128.83L126.703 30.9648V29.752C126.926 29.6934 127.371 29.6289 128.039 29.5586C129.258 29.418 130.102 29.2305 130.57 28.9961C130.699 28.6562 130.764 28.2285 130.764 27.7129C130.764 27.5137 130.758 27.1738 130.746 26.6934L130.764 26.1484L130.711 19.5215L130.729 17.5352L130.641 14.7227L130.658 12.7363L130.5 10.5566C130.5 10.498 130.488 10.3809 130.465 10.2051C130.348 10.0762 130.172 9.99414 129.938 9.95898C129.809 9.93555 129.633 9.90039 129.41 9.85352C128.742 9.71289 128.098 9.63086 127.477 9.60742C127.254 9.5957 126.996 9.57227 126.703 9.53711L126.791 8.13086ZM166.447 8.64062C166.564 9.03906 166.67 9.64258 166.764 10.4512C166.904 11.6582 166.975 12.5957 166.975 13.2637C166.975 13.4746 166.951 13.7031 166.904 13.9492L166.729 14.002L165.463 13.9141L165.252 13.8789C164.736 12.332 164.221 11.2832 163.705 10.7324C162.814 9.79492 161.766 9.32617 160.559 9.32617C159.41 9.32617 158.496 9.63086 157.816 10.2402C157.148 10.8379 156.814 11.582 156.814 12.4727C156.814 13.2227 157.148 13.9434 157.816 14.6348C158.473 15.3262 159.867 15.9883 162 16.6211C162.715 16.832 163.576 17.1719 164.584 17.6406C165.604 18.1094 166.377 18.6191 166.904 19.1699C167.607 19.8965 168.088 20.5996 168.346 21.2793C168.615 21.9473 168.75 22.7852 168.75 23.793C168.75 24.8945 168.545 25.9785 168.135 27.0449C167.912 27.6074 167.555 28.1406 167.062 28.6445C166.711 28.9961 166.166 29.4121 165.428 29.8926C164.689 30.3613 163.922 30.7012 163.125 30.9121C162.34 31.123 161.326 31.2285 160.084 31.2285C159.264 31.2285 158.285 31.1113 157.148 30.877L155.039 30.2617C154.453 30.0977 154.084 29.9512 153.932 29.8223C153.873 29.7754 153.82 29.6641 153.773 29.4883V29.2949C153.773 29.166 153.744 28.3633 153.686 26.8867C153.662 26.125 153.65 25.5859 153.65 25.2695V24.6016L155.268 24.5664C155.83 25.8672 156.193 26.6523 156.357 26.9219C156.721 27.5195 157.119 28.0059 157.553 28.3809C157.998 28.7441 158.525 29.0371 159.135 29.2598C159.744 29.4707 160.406 29.5762 161.121 29.5762C161.754 29.5762 162.451 29.4414 163.213 29.1719C163.975 28.9023 164.584 28.4629 165.041 27.8535C165.51 27.2324 165.744 26.5703 165.744 25.8672C165.744 25 165.34 24.1973 164.531 23.459C164.039 23.002 162.715 22.3926 160.559 21.6309C158.402 20.8691 156.908 20.1895 156.076 19.5918C155.244 18.9941 154.588 18.1973 154.107 17.2012C153.627 16.1934 153.387 15.2266 153.387 14.3008C153.387 12.4375 154.055 10.8555 155.391 9.55469C156.727 8.25391 158.695 7.60352 161.297 7.60352C161.859 7.60352 162.691 7.70313 163.793 7.90234C164.461 8.01953 165.346 8.26563 166.447 8.64062ZM171.861 7.14648H172.951C173.033 7.27539 173.092 7.36914 173.127 7.42773C173.455 7.99023 173.707 8.35938 173.883 8.53516C174.035 8.58203 174.838 8.60547 176.291 8.60547C177.193 8.60547 177.996 8.59961 178.699 8.58789L179.051 8.53516L181.178 8.51758L185.15 8.55273H190.582L191.619 8.39453C191.771 8.28906 191.936 8.00781 192.111 7.55078C192.158 7.44531 192.223 7.29883 192.305 7.11133L193.078 7.09375C193.195 7.09375 193.371 7.09961 193.605 7.11133C193.617 7.91992 193.623 9.13867 193.623 10.7676L193.641 12.332L193.623 13.2285C193.623 13.5332 193.6 13.7969 193.553 14.0195C193.072 14.1719 192.65 14.2656 192.287 14.3008C191.982 13.8438 191.648 13.1816 191.285 12.3145C190.934 11.4473 190.711 10.9668 190.617 10.873C190.477 10.7207 190.312 10.6211 190.125 10.5742C189.844 10.5156 188.602 10.4863 186.398 10.4863C186.07 10.4863 185.66 10.5098 185.168 10.5566C185.098 11.0137 185.062 11.3887 185.062 11.6816L185.08 14.0371V19.2051L185.15 24.7773L185.133 27.0625C185.133 27.8711 185.203 28.4805 185.344 28.8906C185.531 28.9727 185.877 29.0488 186.381 29.1191C186.475 29.1309 186.908 29.2246 187.682 29.4004C188.033 29.4824 188.344 29.5762 188.613 29.6816C188.672 30.1035 188.701 30.3613 188.701 30.4551C188.701 30.5605 188.684 30.7129 188.648 30.9121C188.391 30.9238 188.18 30.9297 188.016 30.9297C186.809 30.9297 185.783 30.8887 184.939 30.8066C184.096 30.7129 182.566 30.666 180.352 30.666C180 30.666 178.969 30.7363 177.258 30.877C176.59 30.9238 176.156 30.9473 175.957 30.9473C175.945 30.7715 175.934 30.6367 175.922 30.543L175.904 30.1387V29.998C176.162 29.6582 176.648 29.4062 177.363 29.2422C178.582 28.9492 179.426 28.6855 179.895 28.4512C180.012 28.2285 180.082 27.9355 180.105 27.5723C180.188 26.166 180.229 23.9277 180.229 20.8574L180.141 14.2129C180.141 12.3848 180.105 11.2773 180.035 10.8906C180.012 10.7852 179.971 10.709 179.912 10.6621C179.854 10.6035 179.771 10.5684 179.666 10.5566C179.303 10.5098 178.119 10.4863 176.115 10.4863C175.014 10.4863 174.275 10.5918 173.9 10.8027C173.396 11.0957 172.641 11.8926 171.633 13.1934C171.34 13.5684 171.123 13.7559 170.982 13.7559C170.443 13.4746 170.098 13.2461 169.945 13.0703C170.309 12.3086 170.812 10.7852 171.457 8.5C171.645 7.83203 171.779 7.38086 171.861 7.14648Z" fill="black"/>
<path d="M94.1 36V37H94.2148L94.3266 36.9739L94.1 36ZM100.75 35.9911L101.034 36.95L101.034 36.95L100.75 35.9911ZM108.25 36.1104L108.617 35.1802L108.617 35.1802L108.25 36.1104ZM132.25 35.724L132.134 34.7308L132.25 35.724ZM133.75 35.8815L134.061 34.931L134.061 34.931L133.75 35.8815ZM138.25 35.9429L137.985 36.9073L137.985 36.9073L138.25 35.9429ZM141.25 35.7593L141.479 34.7859L141.479 34.7859L141.25 35.7593ZM142.75 35.8475L142.633 34.8543L142.633 34.8543L142.75 35.8475ZM147.25 36.1315L147.43 37.1151L147.43 37.1151L147.25 36.1315ZM151.75 36.103L151.534 35.1265L151.534 35.1265L151.75 36.103ZM160.75 35.8591L160.447 34.906L160.75 35.8591ZM163.75 36.0711L164.17 35.1638L164.17 35.1638L163.75 36.0711ZM165.25 35.9957L164.759 35.1247L164.759 35.1247L165.25 35.9957ZM166.75 35.792L166.47 36.7519L166.75 35.792ZM171.25 35.9916L171.596 36.9297L171.596 36.9297L171.25 35.9916ZM172.75 35.9874L172.408 36.9272L172.408 36.9272L172.75 35.9874ZM183.25 35.6934L183.16 36.6894L183.16 36.6894L183.25 35.6934ZM184.75 35.9584L184.496 36.9255L184.496 36.9255L184.75 35.9584ZM193.25 36.0559L193.469 37.0318L193.535 37.0168L193.6 36.9928L193.25 36.0559ZM193.4 36V35H193.219L193.05 35.0631L193.4 36ZM193.5 37C194.052 37 194.5 36.5522 194.5 36C194.5 35.4477 194.052 35 193.5 35V37ZM94 36V37H94.1V36V35H94V36ZM94.1 36L94.3266 36.9739C95.2046 36.7697 95.6943 36.7996 95.9231 36.8787L96.25 35.9337L96.5769 34.9886C95.8057 34.7219 94.862 34.796 93.8734 35.026L94.1 36ZM96.25 35.9337L95.9231 36.8787C96.5317 37.0892 97.1531 37.1887 97.7819 37.1686L97.75 36.1691L97.7181 35.1697C97.3469 35.1815 96.9683 35.124 96.5769 34.9886L96.25 35.9337ZM97.75 36.1691L97.7819 37.1686C98.2562 37.1535 98.7306 37.1566 99.205 37.178L99.25 36.179L99.295 35.1801C98.7694 35.1564 98.2438 35.1529 97.7181 35.1697L97.75 36.1691ZM99.25 36.179L99.205 37.178C99.8205 37.2058 100.431 37.1281 101.034 36.95L100.75 35.9911L100.466 35.0321C100.069 35.1498 99.6795 35.1974 99.295 35.1801L99.25 36.179ZM100.75 35.9911L101.034 36.95C101.387 36.8456 101.728 36.8279 102.069 36.8906L102.25 35.907L102.431 34.9234C101.772 34.8026 101.113 34.8409 100.466 35.0321L100.75 35.9911ZM102.25 35.907L102.069 36.8906C102.654 36.9979 103.242 37.0284 103.831 36.9808L103.75 35.9841L103.669 34.9873C103.258 35.0206 102.846 34.9996 102.431 34.9234L102.25 35.907ZM103.75 35.9841L103.831 36.9808C104.33 36.9405 104.829 36.9006 105.329 36.8611L105.25 35.8642L105.171 34.8673C104.671 34.9069 104.17 34.9469 103.669 34.9873L103.75 35.9841ZM105.25 35.8642L105.329 36.8611C105.801 36.8237 106.272 36.8066 106.744 36.8095L106.75 35.8096L106.756 34.8096C106.228 34.8063 105.699 34.8255 105.171 34.8673L105.25 35.8642ZM106.75 35.8096L106.744 36.8095C107.111 36.8118 107.489 36.885 107.883 37.0405L108.25 36.1104L108.617 35.1802C108.011 34.9409 107.389 34.8135 106.756 34.8096L106.75 35.8096ZM108.25 36.1104L107.883 37.0405C108.488 37.2794 109.109 37.4076 109.74 37.4142L109.75 36.4142L109.76 35.4143C109.391 35.4104 109.012 35.3361 108.617 35.1802L108.25 36.1104ZM109.75 36.4142L109.74 37.4142C110.296 37.4199 110.852 37.3789 111.406 37.2914L111.25 36.3036L111.094 35.3159C110.648 35.3862 110.204 35.4189 109.76 35.4143L109.75 36.4142ZM111.25 36.3036L111.406 37.2914C111.854 37.2208 112.3 37.1866 112.746 37.1886L112.75 36.1886L112.754 35.1886C112.2 35.1861 111.646 35.2287 111.094 35.3159L111.25 36.3036ZM112.75 36.1886L112.746 37.1886C113.259 37.1908 113.773 37.1825 114.287 37.1636L114.25 36.1643L114.213 35.165C113.727 35.1828 113.241 35.1907 112.754 35.1886L112.75 36.1886ZM114.25 36.1643L114.287 37.1636C114.836 37.1434 115.385 37.0826 115.932 36.9815L115.75 35.9982L115.568 35.0148C115.115 35.0985 114.664 35.1484 114.213 35.165L114.25 36.1643ZM115.75 35.9982L115.932 36.9815C116.273 36.9186 116.613 36.9361 116.966 37.0405L117.25 36.0817L117.534 35.1228C116.887 34.9312 116.227 34.8931 115.568 35.0148L115.75 35.9982ZM117.25 36.0817L116.966 37.0405C117.593 37.2261 118.231 37.2828 118.872 37.2041L118.75 36.2115L118.628 35.219C118.269 35.2631 117.907 35.2333 117.534 35.1228L117.25 36.0817ZM118.75 36.2115L118.872 37.2041C119.274 37.1546 119.677 37.1642 120.081 37.2335L120.25 36.2479L120.419 35.2623C119.823 35.1602 119.226 35.1456 118.628 35.219L118.75 36.2115ZM120.25 36.2479L120.081 37.2335C120.633 37.3281 121.186 37.3784 121.74 37.3842L121.75 36.3842L121.76 35.3843C121.314 35.3796 120.867 35.3391 120.419 35.2623L120.25 36.2479ZM121.75 36.3842L121.74 37.3842C122.35 37.3905 122.955 37.2969 123.551 37.1087L123.25 36.1552L122.949 35.2016C122.545 35.3292 122.15 35.3883 121.76 35.3843L121.75 36.3842ZM123.25 36.1552L123.551 37.1087C123.968 36.977 124.378 36.9065 124.783 36.8932L124.75 35.8937L124.717 34.8943C124.122 34.9138 123.532 35.0176 122.949 35.2016L123.25 36.1552ZM124.75 35.8937L124.783 36.8932C125.3 36.8762 125.816 36.8463 126.333 36.8034L126.25 35.8069L126.167 34.8103C125.684 34.8504 125.2 34.8784 124.717 34.8943L124.75 35.8937ZM126.25 35.8069L126.333 36.8034C126.842 36.7611 127.352 36.7114 127.861 36.6543L127.75 35.6605L127.639 34.6667C127.148 34.7217 126.658 34.7696 126.167 34.8103L126.25 35.8069ZM127.75 35.6605L127.861 36.6543C128.195 36.6168 128.537 36.6583 128.899 36.7938L129.25 35.8573L129.601 34.9209C128.963 34.6818 128.305 34.5921 127.639 34.6667L127.75 35.6605ZM129.25 35.8573L128.899 36.7938C129.571 37.0454 130.266 37.1037 130.963 36.9523L130.75 35.9751L130.537 34.998C130.234 35.0641 129.929 35.0439 129.601 34.9209L129.25 35.8573ZM130.75 35.9751L130.963 36.9523C131.431 36.8503 131.899 36.772 132.366 36.7172L132.25 35.724L132.134 34.7308C131.601 34.7933 131.069 34.8824 130.537 34.998L130.75 35.9751ZM132.25 35.724L132.366 36.7172C132.716 36.6762 133.07 36.7113 133.439 36.8319L133.75 35.8815L134.061 34.931C133.43 34.7245 132.784 34.6545 132.134 34.7308L132.25 35.724ZM133.75 35.8815L133.439 36.8319C134.112 37.0519 134.801 37.0829 135.486 36.9168L135.25 35.945L135.014 34.9731C134.699 35.0495 134.388 35.0382 134.061 34.931L133.75 35.8815ZM135.25 35.945L135.486 36.9168C135.916 36.8124 136.343 36.7573 136.767 36.75L136.75 35.7501L136.733 34.7503C136.157 34.7602 135.584 34.835 135.014 34.9731L135.25 35.945ZM136.75 35.7501L136.767 36.75C137.169 36.743 137.574 36.7944 137.985 36.9073L138.25 35.9429L138.515 34.9785C137.926 34.8171 137.331 34.7399 136.733 34.7503L136.75 35.7501ZM138.25 35.9429L137.985 36.9073C138.696 37.1021 139.412 37.0621 140.103 36.8015L139.75 35.8658L139.397 34.9301C139.088 35.0466 138.804 35.058 138.515 34.9785L138.25 35.9429ZM139.75 35.8658L140.103 36.8015C140.425 36.68 140.723 36.6626 141.021 36.7328L141.25 35.7593L141.479 34.7859C140.777 34.6209 140.075 34.6745 139.397 34.9301L139.75 35.8658ZM141.25 35.7593L141.021 36.7328C141.632 36.8764 142.249 36.9133 142.867 36.8407L142.75 35.8475L142.633 34.8543C142.251 34.8993 141.868 34.8774 141.479 34.7859L141.25 35.7593ZM142.75 35.8475L142.867 36.8407C143.347 36.7842 143.827 36.7423 144.307 36.715L144.25 35.7166L144.193 34.7182C143.673 34.7479 143.153 34.7932 142.633 34.8543L142.75 35.8475ZM144.25 35.7166L144.307 36.715C144.651 36.6954 145.006 36.7522 145.381 36.9009L145.75 35.9714L146.119 35.0418C145.494 34.7939 144.849 34.6809 144.193 34.7182L144.25 35.7166ZM145.75 35.9714L145.381 36.9009C146.045 37.1641 146.735 37.2424 147.43 37.1151L147.25 36.1315L147.07 35.1478C146.765 35.2036 146.455 35.1752 146.119 35.0418L145.75 35.9714ZM147.25 36.1315L147.43 37.1151C147.8 37.0475 148.167 37.0534 148.539 37.1338L148.75 36.1565L148.961 35.1791C148.333 35.0432 147.7 35.0324 147.07 35.1478L147.25 36.1315ZM148.75 36.1565L148.539 37.1338C149.117 37.259 149.699 37.3126 150.283 37.2932L150.25 36.2937L150.217 35.2943C149.801 35.3081 149.383 35.2703 148.961 35.1791L148.75 36.1565ZM150.25 36.2937L150.283 37.2932C150.846 37.2744 151.407 37.2028 151.966 37.0794L151.75 36.103L151.534 35.1265C151.093 35.2241 150.654 35.2797 150.217 35.2943L150.25 36.2937ZM151.75 36.103L151.966 37.0794C152.311 37.0031 152.652 37.0089 153.001 37.0987L153.25 36.1303L153.499 35.1619C152.848 34.9943 152.189 34.9818 151.534 35.1265L151.75 36.103ZM153.25 36.1303L153.001 37.0987C153.606 37.2545 154.218 37.3088 154.833 37.2578L154.75 36.2613L154.667 35.2647C154.282 35.2966 153.894 35.2636 153.499 35.1619L153.25 36.1303ZM154.75 36.2613L154.833 37.2578C155.276 37.2211 155.719 37.2223 156.162 37.2613L156.25 36.2651L156.338 35.269C155.781 35.22 155.224 35.2186 154.667 35.2647L154.75 36.2613ZM156.25 36.2651L156.162 37.2613C156.696 37.3083 157.23 37.3279 157.765 37.3201L157.75 36.3202L157.735 35.3203C157.27 35.3271 156.804 35.31 156.338 35.269L156.25 36.2651ZM157.75 36.3202L157.765 37.3201C158.307 37.3123 158.849 37.27 159.39 37.1935L159.25 36.2034L159.11 35.2132C158.651 35.278 158.193 35.3137 157.735 35.3203L157.75 36.3202ZM159.25 36.2034L159.39 37.1935C159.947 37.1148 160.502 36.9872 161.053 36.8121L160.75 35.8591L160.447 34.906C159.998 35.0487 159.553 35.1506 159.11 35.2132L159.25 36.2034ZM160.75 35.8591L161.053 36.8121C161.439 36.6895 161.813 36.6446 162.182 36.6699L162.25 35.6722L162.318 34.6746C161.687 34.6313 161.061 34.7109 160.447 34.906L160.75 35.8591ZM162.25 35.6722L162.182 36.6699C162.548 36.695 162.929 36.7931 163.33 36.9785L163.75 36.0711L164.17 35.1638C163.571 34.8859 162.952 34.718 162.318 34.6746L162.25 35.6722ZM163.75 36.0711L163.33 36.9785C164.136 37.3519 164.975 37.299 165.741 36.8668L165.25 35.9957L164.759 35.1247C164.525 35.2563 164.364 35.2536 164.17 35.1638L163.75 36.0711ZM165.25 35.9957L165.741 36.8668C166.033 36.7024 166.256 36.6894 166.47 36.7519L166.75 35.792L167.03 34.8321C166.244 34.6024 165.467 34.7253 164.759 35.1247L165.25 35.9957ZM166.75 35.792L166.47 36.7519C166.981 36.9013 167.493 37.0409 168.004 37.1706L168.25 36.2012L168.496 35.2318C168.007 35.1081 167.519 34.9749 167.03 34.8321L166.75 35.792ZM168.25 36.2012L168.004 37.1706C168.608 37.3236 169.219 37.3767 169.832 37.3266L169.75 36.3299L169.668 35.3333C169.281 35.3649 168.892 35.3323 168.496 35.2318L168.25 36.2012ZM169.75 36.3299L169.832 37.3266C170.428 37.2779 171.016 37.1439 171.596 36.9297L171.25 35.9916L170.904 35.0536C170.484 35.2087 170.072 35.3002 169.668 35.3333L169.75 36.3299ZM171.25 35.9916L171.596 36.9297C171.875 36.8269 172.131 36.8264 172.408 36.9272L172.75 35.9874L173.092 35.0475C172.369 34.7848 171.625 34.7871 170.904 35.0536L171.25 35.9916ZM172.75 35.9874L172.408 36.9272C173.116 37.1843 173.845 37.1993 174.56 36.9661L174.25 36.0154L173.94 35.0647C173.655 35.1576 173.384 35.1539 173.092 35.0475L172.75 35.9874ZM174.25 36.0154L174.56 36.9661C174.851 36.8712 175.127 36.8734 175.422 36.9759L175.75 36.0312L176.078 35.0865C175.373 34.8418 174.649 34.8334 173.94 35.0647L174.25 36.0154ZM175.75 36.0312L175.422 36.9759C176.06 37.1974 176.715 37.2724 177.375 37.1891L177.25 36.197L177.125 35.2048C176.785 35.2477 176.44 35.2123 176.078 35.0865L175.75 36.0312ZM177.25 36.197L177.375 37.1891C177.894 37.1236 178.413 37.0431 178.931 36.9476L178.75 35.9641L178.569 34.9807C178.087 35.0694 177.606 35.1441 177.125 35.2048L177.25 36.197ZM178.75 35.9641L178.931 36.9476C179.426 36.8563 179.921 36.7689 180.416 36.6854L180.25 35.6994L180.084 34.7133C179.579 34.7985 179.074 34.8876 178.569 34.9807L178.75 35.9641ZM180.25 35.6994L180.416 36.6854C180.851 36.6122 181.283 36.5835 181.715 36.5987L181.75 35.5993L181.785 34.5999C181.217 34.5799 180.649 34.6179 180.084 34.7133L180.25 35.6994ZM181.75 35.5993L181.715 36.5987C182.196 36.6157 182.678 36.6459 183.16 36.6894L183.25 35.6934L183.34 34.6975C182.822 34.6507 182.304 34.6182 181.785 34.5999L181.75 35.5993ZM183.25 35.6934L183.16 36.6894C183.603 36.7293 184.048 36.8077 184.496 36.9255L184.75 35.9584L185.004 34.9914C184.452 34.846 183.897 34.7478 183.34 34.6975L183.25 35.6934ZM184.75 35.9584L184.496 36.9255C185.066 37.0756 185.641 37.1607 186.218 37.1791L186.25 36.1796L186.282 35.1801C185.859 35.1667 185.434 35.1044 185.004 34.9914L184.75 35.9584ZM186.25 36.1796L186.218 37.1791C186.712 37.1948 187.207 37.2148 187.701 37.2391L187.75 36.2403L187.799 35.2415C187.293 35.2167 186.788 35.1962 186.282 35.1801L186.25 36.1796ZM187.75 36.2403L187.701 37.2391C188.215 37.2643 188.728 37.279 189.242 37.2831L189.25 36.2832L189.258 35.2832C188.772 35.2793 188.285 35.2654 187.799 35.2415L187.75 36.2403ZM189.25 36.2832L189.242 37.2831C189.816 37.2877 190.389 37.2289 190.958 37.1078L190.75 36.1297L190.542 35.1516C190.111 35.2431 189.684 35.2866 189.258 35.2832L189.25 36.2832ZM190.75 36.1297L190.958 37.1078C191.361 37.0222 191.759 36.9991 192.156 37.0366L192.25 36.0411L192.344 35.0455C191.741 34.9886 191.139 35.0245 190.542 35.1516L190.75 36.1297ZM192.25 36.0411L192.156 37.0366C192.421 37.0616 192.657 37.0771 192.86 37.0801C193.046 37.0829 193.267 37.077 193.469 37.0318L193.25 36.0559L193.031 35.0801C193.067 35.0723 193.037 35.0825 192.89 35.0803C192.759 35.0784 192.579 35.0677 192.344 35.0455L192.25 36.0411ZM193.25 36.0559L193.6 36.9928L193.75 36.9368L193.4 36L193.05 35.0631L192.9 35.1191L193.25 36.0559ZM193.4 36V37H193.5V36V35H193.4V36Z" fill="black"/>
</svg>
